<svg xmlns="http://www.w3.org/2000/svg"><symbol id="alert-circle-outline" viewBox="0 0 24 24"><path d="M11 15h2v2h-2v-2m0-8h2v6h-2V7m1-5C6.47 2 2 6.5 2 12a10 10 0 0010 10 10 10 0 0010-10A10 10 0 0012 2m0 18a8 8 0 01-8-8 8 8 0 018-8 8 8 0 018 8 8 8 0 01-8 8z"/></symbol><symbol id="check" viewBox="0 0 24 24"><path d="M21 7L9 19l-5.5-5.5 1.41-1.41L9 16.17 19.59 5.59 21 7z"/></symbol><symbol id="open-in-new" viewBox="0 0 24 24"><path d="M14 3v2h3.59l-9.83 9.83 1.41 1.41L19 6.41V10h2V3m-2 16H5V5h7V3H5a2 2 0 00-2 2v14a2 2 0 002 2h14a2 2 0 002-2v-7h-2v7z"/></symbol><symbol id="magnify" viewBox="0 0 24 24"><path d="M9.5 3A6.5 6.5 0 0116 9.5c0 1.61-.59 3.09-1.56 4.23l.27.27h.79l5 5-1.5 1.5-5-5v-.79l-.27-.27A6.516 6.516 0 019.5 16 6.5 6.5 0 013 9.5 6.5 6.5 0 019.5 3m0 2C7 5 5 7 5 9.5S7 14 9.5 14 14 12 14 9.5 12 5 9.5 5z"/></symbol><symbol id="menu" viewBox="0 0 24 24"><path d="M3 6h18v2H3V6m0 5h18v2H3v-2m0 5h18v2H3v-2z"/></symbol><symbol id="window-close" viewBox="0 0 24 24"><path d="M13.46 12L19 17.54V19h-1.46L12 13.46 6.46 19H5v-1.46L10.54 12 5 6.46V5h1.46L12 10.54 17.54 5H19v1.46L13.46 12z"/></symbol><symbol id="core-symbol" viewBox="0 0 104 137.6"><path d="M4.7 48.6c5.8-7.9 15.5-10.8 24.5-13.3 4.6-1.3 8.4-2.1 13.3-2.1 4.2 0 8.4 1 12.5 1.8 4.2.8 8.4 1.5 12.1 3.7 2.4 1.4 5.2 2.2 7.5 3.7.8.5 3.6 1.2 3.2 2.4-.5 1.7-4.7.1-6 .8-1.4.7-3.3 2.1-4.9 1.6-1.6-.4-2-2.3-3.7-2.5-2.7-.3-3.2 2.6-5.9 2.4-2-.2-4.3-2.7-6.4-2.5-1.9.1-4 2.2-5.4 3.3-2.6 1.9-3.8-.8-6-1.7-1.3-.5-1.9-.7-3.3-.7-3.7 0-5.9 1.6-8 4.6.7-1-4-3.2-4.4-3.3-2-.5-4-1.4-6-1.4-5.1-.2-8.7 0-13.1 3.2M42.9 6c-1-1.3-2.2-.8-3.8-.7-.8 2.4-.1 4.4.4 6.4.5 2.2.9 4.5 1.3 6.6.4 2.2.6 4.5.7 6.9.1 1.2.1 2.5-.1 3.7-.2 1-.9 1.7-1.1 2.7 2-.1 4.2 0 6.2-.1 0-1-.7-2-.9-3-.3-1.1-.1-2.2-.2-3.3-.2-1.9-.7-3.7-.9-5.7-.6-4.5-1.3-8.9-1.6-13.5m-31 115.7c4.9 9 18.8 10.9 27.9 11.2 3.5.1 7-.1 10.4-.6 1.8-.2 3.6-.8 5.5-1.3 3.2-.9 6.5-1.9 9.6-3.4 2.7-1.3 6.6-2.6 7.4-6.1-1.5 2.4-13.4 1-15.2.2-1.1-.5-1-.7-1.9.2-2.8 2.8-7.9 3.6-11.6 3-3-.6-7.1-2.9-9.5-4.8-.9-.7-.5-1.1-1.8-.5-2.9 1.4-5 3.2-8.3 3.7-3.5.6-6.7-.1-10.6-1.8-1-.4-1.4-.5-2.4-1.2z"/><path d="M45.8 123.7c-1.2 0-2.4-.2-3.5-.5-1.7-.5-3.4-1.2-5.3-2.4-.3-.2-2-1.7-3-2.5l-.4-.4c-1.1.5-2.1 1.2-3.1 1.9-2 1.4-4.1 2.8-6.8 2.9-2.3.1-4.7-.3-7.5-1.1-.2-.1-.8-.3-1.7-.7-1-.4-2.5-.9-3-1.1 0 0-.2-.1-.3-.3s-.1-.5 0-.6c1.8-1.4 3.6-3.1 5.3-4.7 1.1-1.1 2.3-2.2 3.5-3.2.4-.4.8-.7 1.2-1.2l.6-.8c3.2-4.3 4.5-11.3 5.2-16.5.7-4.9.3-9.9-.1-14.2-.7-8-3.3-13.8-7.8-17.8-2.1-1.8-4.5-3.3-6.7-4.7l-1-.6c-2.3-1.4-4.6-2.8-6.8-4.5-.2-.2-.3-.5-.3-.8.4-1.4 6.3-3.3 6.4-3.3 1.1-.2 2.2-.3 3.5-.3 1.5 0 3 .1 4.4.2 3.4.3 5.6 1.8 7.9 3.4.8.6 1.7 1.2 2.6 1.7l.1-.1c.3-.4.5-.8.7-1.2.3-.6.6-1.3 1.2-1.8 1.3-1.3 2.9-1.6 4.1-1.8.5-.1.9-.1 1.3-.1 2.3 0 3.7.9 5.5 2.1l.9.6c.7.5 1.4.7 1.9.7.9 0 1.4-.6 2.1-1.7.8-1.1 1.8-2.4 3.5-2.6 1.8-.2 3.3.7 4.6 1.5 1 .6 1.9 1.2 2.8 1.2.7 0 1.5-.4 2.3-1.2 1-1 1.9-1.7 2.9-1.7.7 0 1.4.4 2.3 1.2l.2.2c1.8 1.7 2.3 2.2 4.5 1 1.7-.9 3.9-1.5 5.7-1.5 3.1 0 5 1.6 5.1 4.3l-.3.1-.5.2c-.2.1-.3.1-.5.2-2.5.8-9.7 4.8-10.4 5.4-2.4 1.8-4.7 4.2-6.4 6.6-6.6 9.4-6.5 22.8-4.3 31.5 1.1 4.5 2.6 9.8 5.3 14.8 1.2 2.2 2.6 4.2 4.1 6.1l.2.2c3.7 4.4 4.5 4.6 4.7 4.8.1.1.2.2.3.4 0 .3-.3.5-.5.6-.3.2-.7.3-1 .4s-.6.1-1 .2-.8.1-1.1.1c-1.7.1-3.3.2-5 0-1-.1-2.1-.2-3.1-.4-1.2-.2-3.8-.8-5.3-1.6l-1 .5c-1.5 1-4.2 2.2-4.6 2.3-1.6.3-3.1.6-4.6.6zm-11.5-6.5c.9.8 3 2.5 3.2 2.7 1.8 1.1 3.4 1.9 5 2.3 2.4.6 5 .5 7.4-.3.3-.1 3.2-1.3 4.5-2.2l-.3-.6c-1.1-2.2-2.6-5.1-3.3-7.3-.2-.5-.3-.9-.5-1.3-.8-2.3-1.5-4.2-1.5-7.4v-2.8l6.5 17.4c.2.3.3.7.4 1 .5.7 3.2 1.5 5.5 1.9 3.8.7 7.3.7 10 0-.8-.7-2.1-2-4.2-4.5l-.2-.2c-1.6-1.9-3-4-4.2-6.2-2.7-5-4.2-10.4-5.4-15-2.2-8.8-2.3-22.6 4.5-32.3 1.8-2.5 4.1-5 6.6-6.8.6-.5 8.7-4.9 11.1-5.5-.4-2.3-2.3-2.8-3.9-2.8s-3.6.5-5.2 1.3c-2.8 1.5-3.8.6-5.7-1.1l-.2-.2c-.6-.6-1.1-.9-1.6-.9-.6 0-1.3.6-2.2 1.4-1 1-2 1.4-3 1.4-1.2 0-2.3-.7-3.4-1.4-1.2-.8-2.4-1.6-3.9-1.4-1.4.2-2.1 1.1-2.9 2.2-.8 1-1.6 2.1-2.9 2.1-.7 0-1.5-.3-2.4-.9l-.9-.6c-1.8-1.2-3-2-4.9-2-.4 0-.7 0-1.1.1-1.6.2-2.7.7-3.5 1.5-.4.4-.7 1-1 1.5-.2.4-.4.8-.6 1.1 2.2 3.6 3.5 7.8 3.9 10.4.7 4.5-.4 7-1.5 9.4l-.8 1.8L29 52.7c-1.1-.6-2.1-1.3-3-2-2.2-1.6-4.3-3-7.4-3.3-1.4-.1-2.8-.2-4.3-.2-1.3 0-2.4.1-3.4.2-.6.1-4.7 1.7-5.5 2.5 2 1.6 4.3 3 6.5 4.3l1 .6c2.3 1.4 4.7 2.9 6.8 4.8 4.7 4.1 7.4 10.2 8.2 18.5.4 4.4.8 9.5.1 14.5-.7 4.6-1.7 9.9-3.7 14.1l5.1-4.6c.5-.5 1.2-1 1.7-1.4l2.7-2.2-3.6 5.4c-.8.7-1.4 1.3-2.1 2.3s-1.7 1.8-2.5 2.4-1.8 1-3.1 1.1c-.6.8-1.2 1.5-1.9 2.1-1.2 1-2.3 2.1-3.5 3.2-1.5 1.4-3 2.9-4.6 4.2.5.2 1.2.5 2.3.9.7.3 1.4.6 1.6.6 2.7.8 5 1.2 7.2 1.1 2.4-.1 4.3-1.4 6.2-2.7 1.1-.8 2.2-1.5 3.5-2.1l5.6-21.2v3.9c0 3.8-.3 5.5-.6 7.4-.2 1.2-.8 2.7-1.3 4.1-.3.7-.6 1.4-.7 2-.3 1-.6 1.7-1.1 2.5-.3.3-.6.8-.9 1.5zm16-10.1c.3 1.1.6 2 1 3.2.2.4.3.9.5 1.3.4 1.2 1 2.6 1.7 4zm-12.6-2.9l-1.7 6.5v-.1c.5-1.3 1.1-2.8 1.3-3.9.2-.8.3-1.6.4-2.5zm-9.5.3l-4.1 3.7c.4-.1.7-.3 1-.5.7-.6 1.7-1.3 2.3-2.1.2-.4.5-.7.8-1.1zm2-50.7L32.3 70c.8-1.9 1.3-4.1.8-7.5-.3-2.2-1.2-5.6-2.9-8.7zm26.7 58.8c-.4-.9-.6-1.8-.8-2.7l-.2-.7-.3-1.2c0-.1-.1-.2-.1-.3-.3-.8-.7-1.5-1-2.1-.4-.8-.9-1.6-1.2-2.5-1.2-3.7-2-6.8-2-10.4v-3.6l5.3 18.8c.1.3.2.7.3 1l.9 3.3zM45 79.9l2.8-6.2c.3-1 .5-2.3.7-3.6.2-1.4.4-2.7.7-3.5.9-2.4 3-3.9 4.9-5.3 1-.7 1.9-1.4 2.7-2.2l2.6-2.5L49.5 74c-.4 1.3-2.2 4.8-3.3 5.3zm10.4-18.2c-.2.2-.5.3-.7.5-1.9 1.4-3.7 2.7-4.6 4.9-.3.7-.5 2-.7 3.3-.1.9-.3 1.8-.5 2.6zm3.2-2.6l.7-2.3c.6-1.8 2.3-6.1 5.5-6.3l1.2-.1zm4.7-6.9c-.6.4-1.2 1.1-1.7 1.9zm15.2-37.9c-5.5.1-11.5.4-16.6 3.2-2.4 1.3-4.1 3-6.3 4.6-1.1.8-2.3 1.6-3.6 2.2-1.3.7-2.9.8-4.1 1.5l.6 1.5c1.7-.5 2-.7 3.7-.8s3.3-.4 5.1-.2c1.7.2 3.7.1 5.4.6 1.9.5 4.4.5 6.3.7 3.9.3 8.7-.6 12.6-1.4 2.8-.6 6.6-1.8 8.7-3.9.9-.9 1.4-1.8 2.5-2.8 1-1 2.6-2.9 3.4-4s1.4-1.8 2.2-3c.6-1 1.8-3.2 1.8-4.5-5.3 5.9-14.5 6.2-21.7 6.3z"/></symbol><symbol id="file-check" viewBox="0 0 24 24"><path d="M13 9h5.5L13 3.5V9M6 2h8l6 6v12a2 2 0 01-2 2H6a2 2 0 01-2-2V4c0-1.11.89-2 2-2m5.2 16.46l4.75-4.75-1.17-1.41-3.58 3.58-1.59-1.58-1.16 1.16 2.75 3z"/></symbol><symbol id="view-grid" viewBox="0 0 24 24"><path d="M3 11h8V3H3m0 18h8v-8H3m10 8h8v-8h-8m0-10v8h8V3"/></symbol><symbol id="chevron-right" viewBox="0 0 24 24"><path d="M8.59 16.58L13.17 12 8.59 7.41 10 6l6 6-6 6-1.41-1.42z"/></symbol><symbol id="chevron-left" viewBox="0 0 24 24"><path d="M15.41 16.58L10.83 12l4.58-4.59L14 6l-6 6 6 6 1.41-1.42z"/></symbol><symbol id="format-rotate-90" viewBox="0 0 24 24"><path d="M7.34 6.41L.86 12.9l6.49 6.48 6.49-6.48-6.5-6.49M3.69 12.9l3.66-3.66L11 12.9l-3.66 3.66-3.65-3.66m15.67-6.26A8.95 8.95 0 0013 4V.76L8.76 5 13 9.24V6c1.79 0 3.58.68 4.95 2.05a7.007 7.007 0 010 9.9 6.973 6.973 0 01-7.79 1.44l-1.49 1.49C10 21.62 11.5 22 13 22c2.3 0 4.61-.88 6.36-2.64a8.98 8.98 0 000-12.72z"/></symbol><symbol id="file-download" viewBox="0 0 24 24"><path d="M14 2H6c-1.11 0-2 .89-2 2v16c0 1.11.89 2 2 2h12c1.11 0 2-.89 2-2V8l-6-6m-2 17l-4-4h2.5v-3h3v3H16l-4 4m1-10V3.5L18.5 9H13z"/></symbol><symbol id="printer" viewBox="0 0 24 24"><path d="M18 3H6v4h12m1 5a1 1 0 01-1-1 1 1 0 011-1 1 1 0 011 1 1 1 0 01-1 1m-3 7H8v-5h8m3-6H5a3 3 0 00-3 3v6h4v4h12v-4h4v-6a3 3 0 00-3-3z"/></symbol><symbol id="printer-off" viewBox="0 0 24 24"><path d="M6 3v1.18L8.82 7H18V3H6M2.28 3L1 4.27 4.75 8A3.02 3.02 0 002 11v6h4v4h11.73l2 2L21 21.72 2.28 3m7.54 5l9 9H22v-6a3 3 0 00-3-3H9.82M19 10a1 1 0 011 1 1 1 0 01-1 1 1 1 0 01-1-1 1 1 0 011-1M8 14h2.73l5 5H8v-5z"/></symbol><symbol id="magnify-plus-outline" viewBox="0 0 24 24"><path d="M15.5 14l5 5-1.5 1.5-5-5v-.79l-.27-.28A6.471 6.471 0 019.5 16 6.5 6.5 0 013 9.5 6.5 6.5 0 019.5 3 6.5 6.5 0 0116 9.5c0 1.61-.59 3.09-1.57 4.23l.28.27h.79m-6 0C12 14 14 12 14 9.5S12 5 9.5 5 5 7 5 9.5 7 14 9.5 14m2.5-4h-2v2H9v-2H7V9h2V7h1v2h2v1z"/></symbol><symbol id="magnify-minus-outline" viewBox="0 0 24 24"><path d="M15.5 14h-.79l-.28-.27A6.471 6.471 0 0016 9.5 6.5 6.5 0 009.5 3 6.5 6.5 0 003 9.5 6.5 6.5 0 009.5 16c1.61 0 3.09-.59 4.23-1.57l.27.28v.79l5 5 1.5-1.5-5-5m-6 0C7 14 5 12 5 9.5S7 5 9.5 5 14 7 14 9.5 12 14 9.5 14M7 9h5v1H7V9z"/></symbol><symbol id="file-document" viewBox="0 0 24 24"><path d="M13 9h5.5L13 3.5V9M6 2h8l6 6v12a2 2 0 01-2 2H6a2 2 0 01-2-2V4c0-1.11.89-2 2-2m9 16v-2H6v2h9m3-4v-2H6v2h12z"/></symbol></svg>