<svg viewBox="0 0 128 128" xmlns="http://www.w3.org/2000/svg" fill="#333"><g><path d="M29.363 43.21c5.385-7.35 14.39-10.047 22.746-12.373 4.27-1.21 7.799-1.953 12.348-1.953 3.9 0 7.799.93 11.605 1.674 3.9.744 7.799 1.395 11.234 3.442 2.228 1.302 4.827 2.047 6.963 3.442.742.465 3.342 1.116 2.97 2.232-.464 1.582-4.363.093-5.57.745-1.3.65-3.064 1.953-4.549 1.488-1.486-.372-1.857-2.14-3.435-2.326-2.507-.279-2.971 2.419-5.478 2.233-1.856-.186-3.992-2.512-5.941-2.326-1.764.093-3.714 2.047-5.014 3.07-2.414 1.768-3.528-.744-5.57-1.581-1.207-.465-1.764-.651-3.064-.651-3.435 0-5.477 1.488-7.427 4.279.65-.93-3.714-2.977-4.085-3.07-1.857-.465-3.714-1.302-5.57-1.302-4.735-.186-8.078 0-12.163 2.976zM64.829 3.58c-.928-1.209-2.042-.744-3.528-.65-.742 2.232-.092 4.092.372 5.953.464 2.046.835 4.186 1.207 6.14.371 2.046.557 4.185.65 6.418.092 1.116.092 2.325-.093 3.442-.186.93-.836 1.581-1.022 2.511 1.857-.093 3.9 0 5.757-.093 0-.93-.65-1.86-.836-2.79-.278-1.024-.093-2.047-.186-3.07-.185-1.768-.65-3.442-.835-5.302-.557-4.187-1.207-8.28-1.486-12.559zM36.048 111.21c4.55 8.372 17.454 10.14 25.902 10.419 3.25.093 6.5-.093 9.656-.558 1.67-.186 3.342-.744 5.106-1.21 2.97-.837 6.034-1.767 8.912-3.162 2.507-1.21 6.128-2.419 6.87-5.675-1.392 2.233-12.44.93-14.111.186-1.021-.465-.928-.651-1.764.186-2.6 2.605-7.334 3.349-10.77 2.791-2.785-.558-6.591-2.698-8.82-4.465-.835-.651-.463-1.023-1.67-.465-2.693 1.302-4.642 2.977-7.706 3.442-3.25.558-6.22-.093-9.841-1.675-.928-.372-1.3-.465-2.228-1.116l.464 1.302z"/><path d="M67.52 113.07c-1.113 0-2.227-.186-3.249-.465a18.888 18.888 0 0 1-4.92-2.233c-.279-.186-1.857-1.581-2.785-2.325l-.372-.373c-1.021.466-1.95 1.117-2.878 1.768-1.857 1.302-3.806 2.604-6.313 2.698-2.135.093-4.363-.28-6.963-1.024-.186-.093-.743-.279-1.578-.651-.929-.372-2.321-.837-2.785-1.023 0 0-.186-.093-.279-.279-.093-.186-.093-.465 0-.558 1.671-1.303 3.342-2.884 4.92-4.372a49.043 49.043 0 0 1 3.25-2.977c.371-.372.743-.651 1.114-1.116l.557-.745c2.971-4 4.178-10.511 4.828-15.349.65-4.558.278-9.209-.093-13.209-.65-7.442-3.064-12.837-7.242-16.558-1.95-1.674-4.177-3.07-6.22-4.372l-.928-.558c-2.136-1.302-4.27-2.605-6.313-4.186-.186-.186-.279-.465-.279-.744.371-1.303 5.849-3.07 5.942-3.07a17.632 17.632 0 0 1 3.25-.28c1.392 0 2.785.094 4.084.187 3.157.279 5.2 1.674 7.335 3.163A21.592 21.592 0 0 0 52.016 46l.093-.093c.279-.372.465-.744.65-1.116.279-.558.557-1.21 1.114-1.675 1.207-1.209 2.693-1.488 3.807-1.674.464-.093.835-.093 1.207-.093 2.135 0 3.435.837 5.106 1.953l.835.559c.65.465 1.3.65 1.764.65.836 0 1.3-.558 1.95-1.58.743-1.024 1.671-2.233 3.25-2.42 1.67-.185 3.063.652 4.27 1.396.928.558 1.764 1.116 2.6 1.116.65 0 1.392-.372 2.135-1.116.928-.93 1.764-1.581 2.692-1.581.65 0 1.3.372 2.136 1.116l.185.186c1.671 1.581 2.135 2.046 4.178.93 1.578-.837 3.62-1.395 5.292-1.395 2.878 0 4.642 1.488 4.735 4l-.279.093-.464.186c-.186.093-.279.093-.464.186-2.321.744-9.006 4.465-9.656 5.023-2.228 1.675-4.363 3.907-5.941 6.14-6.128 8.744-6.035 21.209-3.992 29.302 1.02 4.186 2.413 9.116 4.92 13.767 1.114 2.047 2.414 3.907 3.807 5.675l.185.186c3.435 4.093 4.178 4.279 4.364 4.465.093.093.185.186.278.372 0 .279-.278.465-.464.558-.278.186-.65.279-.928.372-.279.093-.557.093-.929.186-.371.093-.742.093-1.021.093-1.578.093-3.064.186-4.642 0-.928-.093-1.95-.186-2.878-.372-1.114-.186-3.528-.744-4.92-1.488l-.929.465c-1.393.93-3.9 2.047-4.27 2.14-1.486.279-2.879.558-4.271.558z" fill="#fff"/><path d="M67.52 113.07c-1.113 0-2.227-.186-3.249-.465a18.888 18.888 0 0 1-4.92-2.233c-.279-.186-1.857-1.581-2.785-2.325l-.372-.373c-1.021.466-1.95 1.117-2.878 1.768-1.857 1.302-3.806 2.605-6.313 2.698-2.135.093-4.363-.28-6.963-1.024-.186-.093-.743-.279-1.578-.651-.929-.372-2.321-.837-2.785-1.023 0 0-.186-.093-.279-.279-.093-.186-.093-.465 0-.558 1.671-1.303 3.342-2.884 4.92-4.372a49.043 49.043 0 0 1 3.25-2.977c.371-.372.743-.651 1.114-1.116l.557-.745c2.971-4 4.178-10.511 4.828-15.349.65-4.558.278-9.209-.093-13.209-.65-7.442-3.064-12.837-7.242-16.558-1.95-1.674-4.177-3.07-6.22-4.372l-.928-.558c-2.136-1.302-4.27-2.605-6.313-4.186-.186-.186-.279-.465-.279-.744.371-1.303 5.849-3.07 5.942-3.07a17.632 17.632 0 0 1 3.25-.28c1.392 0 2.785.094 4.084.187 3.157.279 5.2 1.674 7.335 3.163A21.592 21.592 0 0 0 52.016 46l.093-.093c.279-.372.465-.744.65-1.116.279-.558.557-1.21 1.114-1.675 1.207-1.209 2.693-1.488 3.807-1.674.464-.093.835-.093 1.207-.093 2.135 0 3.435.837 5.106 1.953l.835.559c.65.465 1.3.65 1.764.65.836 0 1.3-.558 1.95-1.58.743-1.024 1.671-2.233 3.25-2.42 1.67-.185 3.063.652 4.27 1.396.928.558 1.764 1.116 2.6 1.116.65 0 1.392-.372 2.135-1.116.928-.93 1.764-1.581 2.692-1.581.65 0 1.3.372 2.136 1.116l.185.186c1.671 1.581 2.135 2.046 4.178.93 1.578-.837 3.62-1.395 5.292-1.395 2.878 0 4.642 1.488 4.735 4l-.279.093-.464.186c-.186.093-.279.093-.464.186-2.321.744-9.006 4.465-9.656 5.023-2.228 1.675-4.363 3.907-5.941 6.14-6.128 8.744-6.035 21.209-3.992 29.302 1.02 4.186 2.413 9.116 4.92 13.767 1.114 2.047 2.414 3.907 3.807 5.675l.185.186c3.435 4.093 4.178 4.279 4.364 4.465.093.093.185.186.278.372 0 .279-.278.465-.464.558-.278.186-.65.279-.928.372-.279.093-.557.093-.929.186-.371.093-.742.093-1.021.093-1.578.093-3.064.186-4.642 0-.928-.093-1.95-.186-2.878-.372-1.114-.186-3.528-.744-4.92-1.488l-.929.465c-1.393.93-3.9 2.047-4.27 2.14-1.486.279-2.879.558-4.271.558zm-10.676-6.047c.836.744 2.785 2.326 2.971 2.512 1.671 1.023 3.157 1.767 4.642 2.139a12.34 12.34 0 0 0 6.87-.279c.279-.093 2.971-1.209 4.178-2.046l-.278-.558c-1.022-2.047-2.414-4.744-3.064-6.791-.186-.465-.279-.837-.465-1.209-.742-2.14-1.392-3.907-1.392-6.884v-2.605l6.035 16.186c.185.279.278.652.37.931.465.651 2.972 1.395 5.107 1.767 3.528.651 6.777.651 9.284 0-.743-.651-1.95-1.86-3.9-4.186l-.185-.186c-1.485-1.767-2.785-3.721-3.9-5.767-2.506-4.652-3.898-9.675-5.013-13.954-2.042-8.186-2.135-21.023 4.178-30.047 1.671-2.325 3.807-4.65 6.128-6.325.557-.465 8.077-4.558 10.305-5.116-.371-2.14-2.135-2.605-3.62-2.605-1.486 0-3.343.465-4.829 1.21-2.599 1.395-3.527.557-5.291-1.024L84.789 42c-.557-.558-1.021-.837-1.486-.837-.556 0-1.206.558-2.042 1.302-.928.93-1.857 1.302-2.785 1.302-1.114 0-2.135-.65-3.157-1.302-1.114-.744-2.228-1.488-3.62-1.302-1.3.186-1.95 1.023-2.693 2.046-.743.93-1.485 1.954-2.692 1.954-.65 0-1.393-.28-2.228-.837l-.836-.559c-1.671-1.116-2.785-1.86-4.55-1.86-.37 0-.649 0-1.02.093-1.486.186-2.507.651-3.25 1.395-.371.372-.65.93-.928 1.396-.186.372-.372.744-.557 1.023 2.042 3.349 3.25 7.256 3.62 9.674.65 4.186-.37 6.512-1.392 8.745l-.743 1.674-2.506-18.884c-1.022-.558-1.95-1.209-2.786-1.86-2.042-1.489-3.992-2.79-6.87-3.07-1.3-.093-2.6-.186-3.992-.186-1.207 0-2.228.093-3.156.186-.557.093-4.364 1.581-5.107 2.326 1.857 1.488 3.992 2.79 6.035 4l.928.558c2.136 1.302 4.364 2.697 6.313 4.465 4.364 3.814 6.87 9.488 7.613 17.21.372 4.092.743 8.836.093 13.487-.65 4.28-1.578 9.21-3.435 13.117l4.735-4.28c.464-.464 1.114-.93 1.578-1.302l2.507-2.046-3.342 5.023c-.743.651-1.3 1.21-1.95 2.14-.65.93-1.578 1.674-2.32 2.232-.744.558-1.672.93-2.879 1.024-.557.744-1.114 1.395-1.764 1.953-1.114.93-2.135 1.953-3.25 2.977-1.392 1.302-2.785 2.697-4.27 3.907.464.186 1.114.465 2.135.837.65.279 1.3.558 1.486.558 2.506.744 4.642 1.116 6.684 1.023 2.228-.093 3.992-1.302 5.756-2.511 1.022-.744 2.043-1.396 3.25-1.954l5.199-19.72v3.627c0 3.535-.279 5.117-.557 6.884-.186 1.116-.743 2.512-1.207 3.814-.279.651-.557 1.302-.65 1.86-.279.931-.557 1.582-1.021 2.326-.279.279-.557.744-.836 1.395zm14.854-9.395c.28 1.023.558 1.86.929 2.977.186.372.279.837.464 1.209.372 1.116.928 2.419 1.578 3.721l-2.97-7.907zM60.001 94.93l-1.579 6.047v-.093c.465-1.21 1.022-2.605 1.207-3.628.186-.744.279-1.489.372-2.326zm-8.82.28l-3.807 3.441c.372-.093.65-.279.929-.465.65-.558 1.578-1.21 2.135-1.953.186-.373.464-.652.743-1.024zm1.857-47.163l1.95 15.07c.742-1.768 1.206-3.815.742-6.977-.278-2.047-1.114-5.21-2.692-8.093zm24.788 54.697c-.371-.837-.557-1.674-.743-2.511l-.185-.652-.279-1.116c0-.093-.093-.186-.093-.279-.278-.744-.65-1.395-.928-1.953-.371-.745-.836-1.489-1.114-2.326-1.114-3.442-1.857-6.326-1.857-9.674v-3.35l4.92 17.49c.093.278.186.65.279.93l.836 3.069-.836.372zM66.778 72.326l2.6-5.768c.278-.93.464-2.14.65-3.349.185-1.302.37-2.511.65-3.256.835-2.232 2.785-3.627 4.549-4.93.928-.65 1.763-1.302 2.506-2.046l2.414-2.326-9.191 16.186c-.371 1.21-2.043 4.465-3.064 4.93l-1.114.559zm9.655-16.93c-.185.185-.464.278-.65.465-1.764 1.302-3.435 2.511-4.27 4.558-.279.65-.464 1.86-.65 3.07-.093.837-.278 1.674-.464 2.418l6.034-10.512zm2.971-2.42l.65-2.139c.557-1.674 2.135-5.674 5.106-5.86l1.114-.093-6.87 8.093zm4.364-6.418c-.557.372-1.114 1.023-1.579 1.768l1.579-1.768zm14.111-35.256c-5.106.093-10.676.372-15.411 2.977-2.228 1.21-3.806 2.79-5.849 4.28-1.021.743-2.135 1.488-3.342 2.046-1.207.65-2.692.744-3.807 1.395l.557 1.395c1.579-.465 1.857-.65 3.436-.744 1.578-.093 3.063-.372 4.734-.186 1.579.186 3.435.093 5.014.558 1.764.465 4.085.465 5.849.651 3.62.28 8.077-.558 11.697-1.302 2.6-.558 6.128-1.674 8.078-3.628.835-.837 1.299-1.674 2.321-2.604.928-.93 2.413-2.698 3.156-3.721.743-1.024 1.3-1.675 2.043-2.791.557-.93 1.671-2.977 1.671-4.186-4.921 5.488-13.462 5.767-20.147 5.86z"/></g></svg>
