<svg viewBox="0 0 24 24" xmlns="http://www.w3.org/2000/svg"><path d="M12 0C5.352 0 0 5.352 0 12s5.352 12 12 12 12-5.352 12-12S18.648 0 12 0zm0 6.048c.84 0 1.488.648 1.488 1.488S12.84 9.024 12 9.024s-1.488-.648-1.488-1.488S11.16 6.048 12 6.048zm2.496 10.512c0 .24-.192.456-.504.456h-3.984c-.24 0-.504-.144-.504-.456v-1.008c0-.24.192-.552.504-.552.24 0 .504-.144.504-.456v-1.992c0-.24-.192-.552-.504-.552-.24 0-.504-.144-.504-.456v-.984c0-.24.192-.552.504-.552h3c.24 0 .504.24.504.552v4.008c0 .24.192.456.504.456.24 0 .504.24.504.552v.984h-.024z"/></svg>