<svg viewBox="0 0 24 24" xmlns="http://www.w3.org/2000/svg"><path d="M22.25 0H1.78C.785 0 0 .785 0 1.781V22.22C0 23.215.785 24 1.781 24H22.22c.996 0 1.781-.785 1.781-1.781V1.78C24.03.815 23.215 0 22.25 0zm-2.446 18.143c0 .151-.121.302-.302.302H4.498a.303.303 0 01-.302-.302v-1.419c0-.15.121-.301.302-.301h15.004c.15 0 .302.12.302.302v1.418zm0-3.622c0 .15-.121.302-.302.302H4.498a.302.302 0 01-.302-.302V13.1c0-.15.121-.301.302-.301h15.004c.15 0 .302.12.302.302v1.419zm0-3.623c0 .151-.121.302-.302.302H4.498a.303.303 0 01-.302-.302V9.48c0-.15.121-.302.302-.302h15.004c.15 0 .302.121.302.302v1.42zm0-3.623c0 .151-.121.302-.302.302H4.498a.303.303 0 01-.302-.302V5.857c0-.151.121-.302.302-.302h15.004c.15 0 .302.12.302.302v1.418z"/></svg>