<svg viewBox="0 0 24 24" xmlns="http://www.w3.org/2000/svg"><path d="M10.104 10.682H.571a.571.571 0 01-.571-.57V.571C0 .255.256 0 .571 0h2.284c.316 0 .571.256.571.571v3.72a11.767 11.767 0 018.86-3.91A11.778 11.778 0 0124 12.216C23.986 18.726 18.708 24 12.198 24c-3.05 0-5.829-1.158-7.924-3.058a.573.573 0 01-.022-.83l1.617-1.617a.57.57 0 01.78-.025 8.34 8.34 0 005.55 2.101 8.374 8.374 0 008.375-8.38 8.374 8.374 0 00-8.376-8.381 8.359 8.359 0 00-6.77 3.444h4.676c.316 0 .572.256.572.571v2.286a.571.571 0 01-.572.571z"/></svg>