<svg viewBox="0 0 24 24" xmlns="http://www.w3.org/2000/svg"><path d="M19.038 16.067c-.985 0-1.895.38-2.602.986l-7.604-4.346a3.368 3.368 0 000-1.414l7.604-4.346a4.002 4.002 0 002.602.986 3.957 3.957 0 003.966-3.967A3.957 3.957 0 0019.038 0a3.957 3.957 0 00-3.966 3.966c0 .253.025.48.076.708L7.543 9.019a4.002 4.002 0 00-2.602-.985A3.957 3.957 0 00.975 12a3.957 3.957 0 003.966 3.966c.986 0 1.895-.379 2.602-.985l7.605 4.345a3.37 3.37 0 00-.076.708A3.957 3.957 0 0019.038 24a3.957 3.957 0 003.966-3.966 3.957 3.957 0 00-3.966-3.967z"/></svg>