<svg viewBox="0 0 24 16" xmlns="http://www.w3.org/2000/svg"><path d="M24 .064l-.011.457c-1.054.03-1.688.593-2.092 1.511-.938 2.167-3.874 8.999-5.823 13.446h-.51l-3.071-7.24c-1.219 2.384-2.56 4.874-3.72 7.24-.01.01-.562 0-.562-.012-1.758-4.113-3.603-8.196-5.365-12.32C2.418 2.145.994.52.01.532.011.416 0 .157 0 0h6.07v.521c-.72.041-1.98.499-1.623 1.282.82 1.864 3.884 9.01 4.71 10.821.561-1.113 2.166-4.094 2.822-5.354-.52-1.061-2.197-5.02-2.73-5.999C8.887.604 7.897.544 7.159.532v-.52l5.343.01v.492c-.728.022-1.429.292-1.103.978.709 1.5 1.148 2.554 1.804 3.926.21-.405 1.3-2.602 1.803-3.78C15.34.866 14.86.566 13.558.536c.011-.135 0-.386.011-.51 1.665-.011 4.166-.011 4.616-.022v.51c-.844.03-1.718.48-2.179 1.188l-2.22 4.605c.24.603 2.374 5.354 2.595 5.875l4.59-10.596C20.648.72 19.606.532 19.2.525V.004l4.791.041.008.019z"/></svg>
