<svg viewBox="0 0 24 25" xmlns="http://www.w3.org/2000/svg"><path d="M14.25 9v1.5c0 .31-.252.563-.562.563H5.813a.564.564 0 01-.563-.563V9c0-.309.253-.562.563-.562h7.875c.31 0 .563.253.563.562zm9.423 13.346l-1.327 1.327a1.12 1.12 0 01-1.589 0l-4.678-4.674a1.125 1.125 0 01-.328-.797v-.764a9.703 9.703 0 01-6 2.063A9.749 9.749 0 010 9.751 9.749 9.749 0 019.75 0a9.749 9.749 0 019.751 9.75 9.703 9.703 0 01-2.063 6h.764c.3 0 .586.118.797.329l4.674 4.674c.436.44.436 1.153 0 1.593zM16.126 9.75A6.37 6.37 0 009.75 3.375 6.37 6.37 0 003.375 9.75a6.37 6.37 0 006.375 6.376 6.37 6.37 0 006.376-6.376z"/></svg>